<svg width="22" height="18" viewBox="0 0 22 18" fill="none" xmlns="http://www.w3.org/2000/svg"
	xmlns:xlink="http://www.w3.org/1999/xlink">
	<path id="Vector"
		d="M6.33 0L20.79 0C21.06 0 21.31 0.1 21.5 0.29C21.69 0.48 21.79 0.73 21.79 1L21.79 17C21.79 17.26 21.69 17.51 21.5 17.7C21.31 17.89 21.06 18 20.79 18L6.33 18C6.16 18 6 17.95 5.86 17.88C5.71 17.8 5.59 17.69 5.5 17.55L0.16 9.55C0.05 9.39 0 9.19 0 9C0 8.8 0.05 8.6 0.16 8.44L5.5 0.44C5.59 0.3 5.71 0.19 5.86 0.11C6 0.04 6.16 -2.48e-5 6.33 0ZM6.86 2L2.2 9L6.86 16L19.79 16L19.79 2L6.86 2ZM12.79 7.58L15.62 4.75L17.04 6.17L14.21 9L17.04 11.82L15.62 13.24L12.79 10.41L9.97 13.24L8.55 11.82L11.38 9L8.55 6.17L9.97 4.75L12.79 7.58Z"
		fill="currentColor" fill-opacity="1.000000" fill-rule="nonzero" />
</svg>